# xmcd CD database file
#
# Track frame offsets:
#	150
#	30674
#	42246
#	53900
#	66162
#	79486
#	91566
#	104231
#	119305
#	131160
#	145371
#	159732
#	172240
#	184677
#	197730
#	210593
#	222336
#	234679
#	244976
#	257566
#	271318
#
# Disc length: 3785 seconds
#
# Revision: 3
# Processed by: cddbd v1.5.2PL0 Copyright (c) Steve Scherf et al.
# Submitted via: CDex 1.51
#
DISCID=450ec715
DTITLE=Ray Charles - The Sun's Gonna Shine Again
DYEAR=2004
DGENRE=Blues
TTITLE0=Georgia On My Mind
TTITLE1=Roll With The Baby
TTITLE2=The Sun's Gonna Shine Again
TTITLE3=Jumpin' In The Morning
TTITLE4=The Midnight Hour
TTITLE5=It Should Have Been Me
TTITLE6=Heartbreaker
TTITLE7=Sinner's Prayer
TTITLE8=Mess Around
TTITLE9=Losing Hand
TTITLE10=Funny But I Still Love You
TTITLE11=Feelin' Sad
TTITLE12=I Wonder Who
TTITLE13=Don't You Know
TTITLE14=Ray's Blues
TTITLE15=Nobody Cares
TTITLE16=Mr. Charles Blues
TTITLE17=Black Jack
TTITLE18=I Got A Woman
TTITLE19=Come Back Baby
TTITLE20=Greenbacks
EXTD=YEAR: 2004
EXTT0=
EXTT1=
EXTT2=
EXTT3=
EXTT4=
EXTT5=
EXTT6=
EXTT7=
EXTT8=
EXTT9=
EXTT10=
EXTT11=
EXTT12=
EXTT13=
EXTT14=
EXTT15=
EXTT16=
EXTT17=
EXTT18=
EXTT19=
EXTT20=
PLAYORDER=
